<svg viewBox="0 0 48 48" xml:space="preserve" xmlns="http://www.w3.org/2000/svg"><path clip-rule="evenodd" d="M35 47H13a4 4 0 0 1-4-4V13a4 4 0 0 1 4-4h7V5a4 4 0 0 1 8 0v4h7a4 4 0 0 1 4 4v30a4 4 0 0 1-4 4zM26 5a2 2 0 0 0-4 0v6a2 2 0 0 0 4 0V5zm11 8a2 2 0 0 0-2-2h-7a4 4 0 0 1-8 0h-7a2 2 0 0 0-2 2v24h3.797c.231-.589.656-1.549 1.16-2.24.025-.014.848-1.739 4.998-1.79.006-.021.01-1.042.022-1.027a7.286 7.286 0 0 1-1.051-.816c-.255-.156-1.161-1.029-1.452-2.583-.087-.542-.488-3.099-.488-4.166 0-3.171 1.265-6.381 5.953-6.381h.121c4.688 0 5.953 3.21 5.953 6.381 0 1.067-.401 3.624-.488 4.166-.291 1.554-1.196 2.427-1.452 2.583a7.11 7.11 0 0 1-1.051.816c.013-.015.018 1.007.022 1.027 4.151.051 4.974 1.776 4.998 1.79.504.691.929 1.651 1.16 2.24H37V13zM25.014 31.488l-.001.004c-.003 0-.017-.781-.017-.781s1.166-.601 2.031-1.378c.507-.417.741-1.362.741-1.362.137-.828.238-2.877.238-3.703 0-2.062-1.033-4.28-4.007-4.28v-.007.007c-2.974 0-4.007 2.219-4.007 4.28 0 .826.103 2.875.238 3.703 0 0 .234.945.741 1.362.865.777 2.031 1.378 2.031 1.378s-.014.781-.018.781v-.004s.029 1.146.029 1.486c0 1.363-1.365 2.019-2.223 2.019h-.003c-2.593.114-3.205.976-3.21.984-.158.253-.377.505-.579 1.023h14.005c-.203-.518-.422-.77-.582-1.022-.006-.009-.619-.87-3.211-.984h-.002c-.858 0-2.224-.655-2.224-2.019 0-.341.03-1.487.03-1.487zM37 39H11v4a2 2 0 0 0 2 2h22a2 2 0 0 0 2-2v-4zm-6 4h-3a1 1 0 1 1 0-2h3a1 1 0 1 1 0 2zm-8 0h-6a1 1 0 1 1 0-2h6a1 1 0 1 1 0 2zm0-38h2v2h-2V5z" fill-rule="evenodd" fill="#ffffff" class="fill-000000"></path></svg>