<svg viewBox="0 0 64 64" xml:space="preserve" xmlns="http://www.w3.org/2000/svg"><path d="M62.3 36.596h-.235c-1.467 0-1.59 1.391-1.597 1.754v2.47c0 .756-.713.07-.772.009l-5.482-5.42-21.198-21.308-.002-.001c-1.075-1.08-2.125-.018-2.141-.001L8.591 36.269H8.59l-.268.269c-.063.07-.133.161-.204.258L4.35 40.525c-.808.796-.818-.003-.818-.003v-2.389c0-1.402-1.013-1.531-1.332-1.537h-.358S.25 36.564.25 38.18v10.23s0 1.973 1.475 1.973h.332c.309-.009 1.475-.161 1.475-1.993v-1.687c0-1.568.741-2.273.741-2.273l2.671-2.644c.125-.116.573-.503.573.032v6.816c.007.431.164 1.748 1.811 1.748H21.093c1.957 0 2.466-1.449 2.488-1.517l7.87-22.504h.001s.49-1.085.879 0l.001.003 7.983 22.293s.539 1.725 2.78 1.725h11.171c1.804 0 1.979-1.329 1.99-1.776v-5.977s.093-1.276 1.384 0l2.13 2.106s.696.703.696 1.804v2.309c.006.357.123 1.534 1.456 1.534h.094c1.732.097 1.732-2.181 1.732-2.181v-9.577c.002-1.847-1.094-2.02-1.448-2.028zm-8.571 9.363c-.056.606-.418 1.651-2.318 1.651h-6.86c-1.769 0-2.398-1.285-2.558-1.704l-.044-.12-.006-.018-7.524-20.538c-.827-2.246-2.324-2.177-2.324-2.177h-.23c-.468.042-1.581.391-2.45 2.665l-.001.001-7.628 19.945c-.18.451-.914 1.944-2.686 1.944h-6.743c-2.088 0-2.261-1.675-2.271-2.125v-4.935c.007-.349.123-1.745 1.523-3.161L30.806 17.97s1.172-1.234 2.358 0l.002.001 19.335 20.115c.096.1 1.229 1.344 1.229 3.205v4.668z" fill="#ffffff" class="fill-241f20"></path></svg>